<?xml version="1.0" encoding="iso-8859-1"?>
<!-- Generator: Adobe Illustrator 19.0.0, SVG Export Plug-In . SVG Version: 6.00 Build 0)  -->
<svg xmlns="http://www.w3.org/2000/svg" xmlns:xlink="http://www.w3.org/1999/xlink" version="1.1" id="Capa_1" x="0px" y="0px" viewBox="0 0 512.001 512.001" style="enable-background:new 0 0 512.001 512.001;" xml:space="preserve" width="512px" height="512px">
<g>
	<g>
		<path d="M434.775,37.506c0-20.678-16.822-37.5-37.5-37.5L321.22,0c-16.542,0-30,13.458-30,30s13.458,30,29.999,30l11.898,0.002    l-79.641,79.641c-17.911-10.54-38.269-16.083-59.256-16.083c-31.251,0-60.632,12.17-82.73,34.268    c-22.099,22.098-34.269,51.48-34.269,82.732s12.17,60.633,34.269,82.731c14.684,14.684,32.813,25.105,52.731,30.368V399.5H141.72    c-8.013,0-15.546,3.121-21.212,8.787c-5.666,5.667-8.787,13.2-8.787,21.213c0,16.542,13.458,30,30,30h22.5V482    c0,8.014,3.12,15.547,8.787,21.214c5.667,5.666,13.2,8.787,21.213,8.787c16.542,0,30-13.458,30-30v-22.5h22.5    c16.542,0,30-13.458,30-30c0-8.013-3.121-15.547-8.787-21.213c-5.667-5.667-13.2-8.787-21.213-8.787h-22.5V353.66    c19.918-5.263,38.047-15.684,52.731-30.368c19.115-19.115,31.087-44.434,33.709-71.293c2.386-24.441-3.013-49.135-15.247-70.205    l79.363-79.364l0.002,11.897c0,16.542,13.458,30,30,30s30-13.458,30-30L434.775,37.506z M404.781,129.326    c-8.271,0-15-6.729-15-15.001l-0.006-30c0-3.033-1.828-5.768-4.63-6.928c-2.803-1.161-6.029-0.52-8.173,1.626l-96.355,96.355    c-2.511,2.511-2.917,6.439-0.972,9.41c26.267,40.136,20.674,93.925-13.298,127.897c-14.07,14.069-31.76,23.648-51.159,27.702    c-3.476,0.726-5.966,3.791-5.966,7.341V407c0,4.142,3.358,7.5,7.5,7.5h30c4.006,0,7.773,1.56,10.606,4.393s4.394,6.6,4.394,10.607    c0,8.271-6.729,15-15,15h-30c-4.142,0-7.5,3.358-7.5,7.5v30c0,8.271-6.729,15-15,15c-4.007,0-7.773-1.561-10.607-4.394    c-2.833-2.833-4.393-6.6-4.393-10.606v-30c0-4.142-3.358-7.5-7.5-7.5h-30c-8.271,0-15-6.729-15-15    c0-4.007,1.561-7.773,4.394-10.607c2.833-2.833,6.6-4.393,10.606-4.393h30c4.142,0,7.5-3.358,7.5-7.5v-59.272    c0-3.551-2.49-6.615-5.966-7.341c-19.399-4.054-37.09-13.633-51.159-27.702c-19.265-19.265-29.875-44.88-29.875-72.125    s10.61-52.86,29.875-72.125c19.265-19.265,44.879-29.874,72.124-29.874c20.104,0,39.54,5.829,56.205,16.856    c2.972,1.966,6.92,1.569,9.442-0.952l96.656-96.656c2.145-2.145,2.787-5.37,1.626-8.173c-1.16-2.802-3.895-4.63-6.928-4.63    L321.22,45c-8.271,0-15-6.729-15-15s6.729-15,15-15l76.056,0.006c12.407,0,22.5,10.093,22.5,22.5l0.006,76.819    C419.781,122.597,413.052,129.326,404.781,129.326z" fill="#e62686"/>
	</g>
</g>
<g>
	<g>
		<path d="M194.221,168.56c-13.334,0-26.364,3.682-37.683,10.646c-3.528,2.171-4.627,6.791-2.457,10.318    c2.171,3.527,6.79,4.627,10.318,2.457c8.953-5.51,19.266-8.422,29.822-8.422c31.43,0,57,25.57,57,57s-25.57,57-57,57    s-57-25.57-57-57c0-10.557,2.912-20.869,8.422-29.822c2.171-3.527,1.071-8.147-2.457-10.318    c-3.527-2.171-8.147-1.071-10.318,2.457c-6.966,11.318-10.647,24.349-10.647,37.683c0,39.701,32.299,72,72,72    c39.701,0,72-32.299,72-72S233.923,168.56,194.221,168.56z" fill="#e62686"/>
	</g>
</g>
<g>
</g>
<g>
</g>
<g>
</g>
<g>
</g>
<g>
</g>
<g>
</g>
<g>
</g>
<g>
</g>
<g>
</g>
<g>
</g>
<g>
</g>
<g>
</g>
<g>
</g>
<g>
</g>
<g>
</g>
</svg>
