<?xml version="1.0" encoding="iso-8859-1"?>
<!-- Generator: Adobe Illustrator 16.0.0, SVG Export Plug-In . SVG Version: 6.00 Build 0)  -->
<!DOCTYPE svg PUBLIC "-//W3C//DTD SVG 1.1//EN" "http://www.w3.org/Graphics/SVG/1.1/DTD/svg11.dtd">
<svg xmlns="http://www.w3.org/2000/svg" xmlns:xlink="http://www.w3.org/1999/xlink" version="1.1" id="Capa_1" x="0px" y="0px" width="512px" height="512px" viewBox="0 0 561.691 561.691" style="enable-background:new 0 0 561.691 561.691;" xml:space="preserve">
<g>
	<g>
		<path d="M166.869,283.16c11.355,3.48,23.385-2.898,26.875-14.249c0.01,0,32.164-104.833,32.164-104.833    c0.191-0.445,1.152-2.286,3.399-2.286c0.206,0,4.528,0,4.528,0h0.01c1.281-0.019,2.027,1.066,1.688,2.295l-64.36,210.653    c-0.349,1.229,0,3.375,2.243,3.375h44.499c1.281,0,2.213,1.038,2.213,2.314c0,0-0.009,153.459-0.009,153.517    c0,15.323,12.421,27.745,27.746,27.745c15.324,0,27.746-12.422,27.746-27.745l0.009-153.517c0-1.281,1.033-2.314,2.314-2.314    h0.038h4.437h0.038c1.281,0,2.314,1.033,2.314,2.314l0.01,153.517c0,15.323,12.421,27.745,27.745,27.745    s27.746-12.422,27.746-27.745c0-0.053-0.01-153.517-0.01-153.517c0-1.281,0.937-2.314,2.214-2.314h45.809    c2.242,0,2.592-2.146,2.242-3.375l-64.365-210.648c-0.339-1.229,0.412-2.314,1.688-2.295h0.01c0,0,4.326,0,4.532,0    c2.247,0,3.208,1.841,3.399,2.286c0,0,32.149,104.829,32.163,104.833c3.49,11.351,15.521,17.734,26.876,14.249    c11.365-3.486,17.753-15.521,14.267-26.88c-0.014-0.043-18.904-61.654-31.881-103.964c-0.134-0.516-0.254-0.961-0.358-1.324    c-4.915-17.083-16.242-55.988-52.532-55.988h-89.442c-33.813,0-45.111,38.905-50.031,55.988    c-0.105,0.363-32.226,105.245-32.24,105.283C149.121,267.64,155.509,279.679,166.869,283.16z" fill="#e62686"/>
		<circle cx="280.845" cy="41.291" r="41.291" fill="#e62686"/>
	</g>
</g>
<g>
</g>
<g>
</g>
<g>
</g>
<g>
</g>
<g>
</g>
<g>
</g>
<g>
</g>
<g>
</g>
<g>
</g>
<g>
</g>
<g>
</g>
<g>
</g>
<g>
</g>
<g>
</g>
<g>
</g>
</svg>
