<?xml version="1.0" encoding="UTF-8" standalone="no"?>
<svg width="112px" height="33px" viewBox="0 0 112 33" version="1.1" xmlns="http://www.w3.org/2000/svg" xmlns:xlink="http://www.w3.org/1999/xlink" xmlns:sketch="http://www.bohemiancoding.com/sketch/ns">
    <!-- Generator: Sketch 3.3.3 (12081) - http://www.bohemiancoding.com/sketch -->
    <title>Group</title>
    <desc>Created with Sketch.</desc>
    <defs></defs>
    <g id="10---Main-navigation" stroke="none" stroke-width="1" fill="none" fill-rule="evenodd" sketch:type="MSPage">
        <g id="10-B.2-Main-navagation---overlay" sketch:type="MSArtboardGroup" transform="translate(-39.000000, -222.000000)">
            <g id="Fill-1-+-Fill-2-+-Fill-3-Copy-+-Group" sketch:type="MSLayerGroup" transform="translate(0.000000, -1.000000)">
                <g id="Group" transform="translate(39.000000, 223.000000)" sketch:type="MSShapeGroup">
                    <path d="M0.756818164,0.30026944 L5.59812575,0.30026944 L7.93582062,9.99986206 L7.97249719,9.99986206 L10.3835452,0.30026944 L15.1689647,0.30026944 L15.1689647,13.3553548 L12.0532025,13.3553548 L12.0532025,3.21549944 L12.0165259,3.21549944 L9.40113702,13.3553548 L6.48884251,13.3553548 L3.79835393,3.21549944 L3.76255061,3.21549944 L3.76255061,13.3553548 L0.756818164,13.3553548 L0.756818164,0.30026944" id="Fill-4" fill="#FF008C"></path>
                    <path d="M20.4139948,9.03334252 C20.4299742,10.6655147 21.4800503,11.17844 22.2889133,11.17844 C23.2263726,11.17844 23.6623825,10.697902 24.3905875,9.67355771 L26.2807245,10.6504508 C25.4079439,12.2494823 24.0344747,13.0019235 22.110857,13.0019235 C19.4438157,13.0019235 17.8922902,11.17844 17.8922902,8.77800964 C17.8922902,5.77050465 19.4925149,4.04192365 22.110857,4.04192365 C25.2466278,4.04192365 26.3134443,6.41071984 26.3294237,9.03334252 L20.4139948,9.03334252 L20.4139948,9.03334252 Z M23.8077191,7.49757927 C23.7270611,6.25028945 22.8223216,5.86616033 22.0948775,5.86616033 C21.3674335,5.86616033 20.4946528,6.37833248 20.381275,7.49757927 L23.8077191,7.49757927 L23.8077191,7.49757927 Z" id="Fill-5" fill="#FFFFFF"></path>
                    <path d="M36.2526433,12.7774716 L33.829098,12.7774716 L33.829098,11.9451918 L33.7963782,11.9451918 C33.3763478,12.4739343 32.616184,13.0019235 31.4854498,13.0019235 C29.4164954,13.0019235 27.7675715,11.6740419 27.7188723,8.58669828 C27.670934,5.19431098 29.6424901,4.04192365 31.372072,4.04192365 C32.0667963,4.04192365 32.9882761,4.16996668 33.7316996,4.93822491 L33.7316996,1.38691361 L36.2526433,1.38691361 L36.2526433,12.7774716 L36.2526433,12.7774716 Z M31.9693979,5.86616033 C30.7739851,5.86616033 30.2405769,6.89050463 30.2405769,8.52192357 C30.2405769,9.91382671 30.5799493,11.17844 31.9693979,11.17844 C33.2789494,11.17844 33.7316996,9.97784822 33.7316996,8.34567609 C33.7316996,6.82648311 33.2789494,5.86616033 31.9693979,5.86616033 L31.9693979,5.86616033 Z" id="Fill-6" fill="#FFFFFF"></path>
                    <path d="M38.6936899,1.38691361 L41.2146335,1.38691361 L41.2146335,3.30680597 L38.6936899,3.30680597 L38.6936899,1.38691361 Z M38.6936899,4.26637556 L41.2146335,4.26637556 L41.2146335,12.7774716 L38.6936899,12.7774716 L38.6936899,4.26637556 Z" id="Fill-7" fill="#FFFFFF"></path>
                    <path d="M51.0419766,11.0021925 C51.0419766,11.5942033 51.057956,12.2494823 51.2687322,12.7774716 L48.9410634,12.7774716 C48.843665,12.4897513 48.7957267,12.186214 48.7789864,11.8977406 L48.7470276,11.8977406 C48.3262362,12.5703431 47.0661448,13.0019235 46.1614053,13.0019235 C44.5124814,13.0019235 43.2843488,12.1056222 43.2843488,10.4734501 C43.2843488,8.42626789 44.9484913,7.7062141 47.6961905,7.32283818 L48.6176704,7.19479515 L48.6176704,6.48980525 C48.6176704,5.85034325 48.1010025,5.5776869 47.4214967,5.5776869 C46.6133946,5.5776869 46.225323,5.86616033 46.0959658,6.71425716 L43.6716595,6.71425716 C43.7530785,4.26637556 46.0472666,4.04192365 47.2114814,4.04192365 C49.5551296,4.04192365 51.0252362,4.58648315 51.0419766,6.50637552 L51.0419766,11.0021925 L51.0419766,11.0021925 Z M48.6176704,8.63414953 L46.9208082,9.11468751 C46.2907625,9.2894286 45.7078941,9.52969759 45.7078941,10.2181172 C45.7078941,10.8899666 46.2740222,11.17844 46.8880884,11.17844 C47.8742469,11.17844 48.6176704,10.5224077 48.6176704,9.22616028 L48.6176704,8.63414953 L48.6176704,8.63414953 Z" id="Fill-8" fill="#FFFFFF"></path>
                    <path d="M59.1070179,7.13002043 C58.6550286,6.17045085 57.8788854,5.96181601 57.4908138,5.96181601 C56.052666,5.96181601 55.5352372,7.06675211 55.5352372,8.52192357 C55.5352372,9.97784822 56.1493035,11.0820311 57.4908138,11.0820311 C58.266957,11.0820311 58.8810233,10.7943109 59.2850743,9.83398811 L61.0953143,10.7461064 C60.319171,12.1056222 58.9137431,13.0019235 57.2648191,13.0019235 C54.6951763,13.0019235 52.9168952,11.3855684 52.9168952,8.52192357 C52.9168952,5.70572994 54.8077931,4.04192365 57.1841611,4.04192365 C58.8163447,4.04192365 60.2225336,4.6339344 61.0466151,6.12224641 L59.1070179,7.13002043" id="Fill-9" fill="#FFFFFF"></path>
                    <path d="M71.4066055,8.52192357 C71.4066055,11.3855684 69.5164684,13.0019235 66.8334478,13.0019235 C64.1496662,13.0019235 62.2587682,11.3855684 62.2587682,8.52192357 C62.2587682,5.6582787 64.1496662,4.04192365 66.8334478,4.04192365 C69.5164684,4.04192365 71.4066055,5.6582787 71.4066055,8.52192357 L71.4066055,8.52192357 Z M64.7804728,8.52192357 C64.7804728,9.97784822 65.3945391,11.0820311 66.8334478,11.0820311 C68.2708346,11.0820311 68.8856618,9.97784822 68.8856618,8.42626789 C68.8856618,7.06675211 68.2708346,5.96181601 66.8334478,5.96181601 C65.3945391,5.96181601 64.7804728,7.06675211 64.7804728,8.52192357 L64.7804728,8.52192357 Z" id="Fill-10" fill="#FFFFFF"></path>
                    <path d="M73.2168454,1.38691361 L75.73855,1.38691361 L75.73855,12.7774716 L73.2168454,12.7774716 L73.2168454,1.38691361 Z" id="Fill-11" fill="#FFFFFF"></path>
                    <path d="M78.1948151,1.38691361 L80.7157588,1.38691361 L80.7157588,12.7774716 L78.1948151,12.7774716 L78.1948151,1.38691361 Z" id="Fill-12" fill="#FFFFFF"></path>
                    <path d="M85.1291223,9.03334252 C85.1451017,10.6655147 86.1959388,11.17844 87.0040408,11.17844 C87.9415001,11.17844 88.37751,10.697902 89.1049541,9.67355771 L90.996613,10.6504508 C90.1238323,12.2494823 88.7496022,13.0019235 86.8259845,13.0019235 C84.1589432,13.0019235 82.6074177,11.17844 82.6074177,8.77800964 C82.6074177,5.77050465 84.2076424,4.04192365 86.8259845,4.04192365 C89.9625162,4.04192365 91.0285718,6.41071984 91.0453121,9.03334252 L85.1291223,9.03334252 L85.1291223,9.03334252 Z M88.5236076,7.49757927 C88.4421886,6.25028945 87.5374491,5.86616033 86.810005,5.86616033 C86.0833219,5.86616033 85.2097803,6.37833248 85.0971634,7.49757927 L88.5236076,7.49757927 L88.5236076,7.49757927 Z" id="Fill-13" fill="#FFFFFF"></path>
                    <path d="M100.839935,4.26637556 L100.839935,12.7932887 C100.839935,15.4972563 98.043537,15.592912 96.718767,15.592912 C94.1316229,15.592912 92.7741332,14.7297513 92.7581537,12.6494285 L95.3764958,12.6494285 C95.3924752,13.5781172 95.9266444,13.9614931 96.8313839,13.9614931 C97.8015629,13.9614931 98.3996498,13.7694285 98.3996498,12.5213855 L98.3996498,11.5459988 C97.8495012,12.0732349 96.7826847,12.2494823 96.0232818,12.2494823 C93.614955,12.2494823 92.6774957,10.32959 92.6774957,8.18599889 C92.6774957,6.10642933 93.7762711,4.04192365 96.0560016,4.04192365 C96.9926999,4.04192365 97.8015629,4.25055848 98.5122666,4.93822491 L98.5122666,4.26637556 L100.839935,4.26637556 L100.839935,4.26637556 Z M96.7826847,5.86616033 C95.9905621,5.86616033 95.1992003,6.31431096 95.1992003,8.15361154 C95.1992003,9.17795584 95.425195,10.4259989 96.7507259,10.4259989 C98.36693,10.4259989 98.4148683,9.03334252 98.4148683,8.15361154 C98.4148683,6.42578373 97.558067,5.86616033 96.7826847,5.86616033 L96.7826847,5.86616033 Z" id="Fill-14" fill="#FFFFFF"></path>
                    <path d="M105.123181,9.03334252 C105.13916,10.6655147 106.189236,11.17844 106.997338,11.17844 C107.934798,11.17844 108.371569,10.697902 109.098252,9.67355771 L110.989911,10.6504508 C110.11713,12.2494823 108.7429,13.0019235 106.820043,13.0019235 C104.153002,13.0019235 102.601476,11.17844 102.601476,8.77800964 C102.601476,5.77050465 104.201701,4.04192365 106.820043,4.04192365 C109.955053,4.04192365 111.02263,6.41071984 111.03861,9.03334252 L105.123181,9.03334252 L105.123181,9.03334252 Z M108.516905,7.49757927 C108.436247,6.25028945 107.530747,5.86616033 106.804064,5.86616033 C106.07662,5.86616033 105.203078,6.37833248 105.090461,7.49757927 L108.516905,7.49757927 L108.516905,7.49757927 Z" id="Fill-15" fill="#FFFFFF"></path>
                    <g transform="translate(0.000000, 20.434090)" fill="#FFFFFF">
                        <path d="M13.1429844,3.5095574 L15.6639281,3.5095574 L15.6639281,4.26124534 C16.3107141,3.5095574 17.3775306,3.28510548 18.1536739,3.28510548 C19.1398323,3.28510548 19.8665155,3.66923459 20.4326435,4.42092254 C21.256725,3.59014919 22.1941843,3.28510548 23.1963221,3.28510548 C24.0363831,3.28510548 25.8473839,3.57357891 25.8473839,5.52585864 L25.8473839,12.0206534 L23.3256793,12.0206534 L23.3256793,7.04580481 C23.3256793,5.84521304 22.9863069,5.30140673 22.0321073,5.30140673 C21.1920464,5.30140673 20.7560365,5.92505164 20.7560365,6.78971874 L20.7560365,12.0206534 L18.233571,12.0206534 L18.233571,6.69406306 C18.233571,5.86103012 17.9756175,5.30140673 17.0061994,5.30140673 C15.9873211,5.30140673 15.6639281,5.95743899 15.6639281,6.72569722 L15.6639281,12.0206534 L13.1429844,12.0206534 L13.1429844,3.5095574" id="Fill-16"></path>
                        <path d="M33.9284047,6.02146051 C33.4269553,5.42944976 32.3441594,5.10934217 31.5520367,5.10934217 C30.9219911,5.10934217 30.4692408,5.33304089 30.4692408,5.76537444 C30.4692408,7.22129909 35.5613492,6.02146051 35.5613492,9.20521298 C35.5613492,11.4452129 33.5563125,12.2451053 31.6813939,12.2451053 C29.8064754,12.2451053 28.7404198,11.7171161 27.4795675,10.5647288 L29.0470725,9.22103006 C29.8232157,9.95690093 30.6153384,10.4216218 31.762052,10.4216218 C32.1828433,10.4216218 33.1362821,10.325213 33.1362821,9.55695473 C33.1362821,8.22982631 28.0449346,9.28505158 28.0449346,6.26172951 C28.0449346,4.11813842 29.9358326,3.28510548 31.6813939,3.28510548 C33.0069248,3.28510548 34.3164763,3.74982639 35.4799303,4.51733142 L33.9284047,6.02146051" id="Fill-17"></path>
                        <path d="M42.155523,5.20499785 L40.6519357,5.20499785 L40.6519357,9.38146045 C40.6519357,10.0533098 40.9913082,10.2288041 41.4440584,10.2288041 C41.7187522,10.2288041 42.0741041,10.1971699 42.2034613,10.1813528 L42.2034613,12.1486965 C41.8800683,12.1810838 41.1374057,12.2451053 40.5872571,12.2451053 C38.4376447,12.2451053 38.1309921,10.9172237 38.1309921,9.68499777 L38.1309921,5.20499785 L36.9020986,5.20499785 L36.9020986,3.66923459 L38.1309921,3.66923459 L38.1309921,1.20553592 L40.6519357,1.20553592 L40.6519357,3.66923459 L42.155523,3.66923459 L42.155523,5.20499785" id="Fill-18"></path>
                        <path d="M46.1473342,8.27652436 C46.1633136,9.90869649 47.2141507,10.4216218 48.0230137,10.4216218 C48.9597121,10.4216218 49.3957219,9.94108385 50.123166,8.91673955 L52.0148249,9.8936326 C51.1412833,11.4926642 49.7678141,12.2451053 47.8441964,12.2451053 C45.1771552,12.2451053 43.6256296,10.4216218 43.6256296,8.02119148 C43.6256296,5.01368649 45.2258544,3.28510548 47.8441964,3.28510548 C50.9799673,3.28510548 52.0467838,5.65390168 52.0627632,8.27652436 L46.1473342,8.27652436 L46.1473342,8.27652436 Z M49.5418195,6.74076111 C49.4604006,5.49347128 48.555661,5.10934217 47.828217,5.10934217 C47.1015338,5.10934217 46.2279922,5.62151432 46.1153754,6.74076111 L49.5418195,6.74076111 L49.5418195,6.74076111 Z" id="Fill-19"></path>
                        <path d="M53.904962,3.5095574 L56.4274275,3.5095574 L56.4274275,4.3742245 C56.9760542,3.86205235 57.8975341,3.54119156 58.7862942,3.47717004 L58.8030345,5.68553584 L58.5275798,5.71717 C57.0247534,5.89341747 56.4274275,6.14950355 56.4274275,7.09325606 L56.4274275,12.0206534 L53.904962,12.0206534 L53.904962,3.5095574" id="Fill-20"></path>
                        <path d="M68.5162389,12.0206534 L66.0926936,12.0206534 L66.0926936,11.1883737 L66.0599738,11.1883737 C65.6399434,11.7171161 64.8797795,12.2451053 63.7490454,12.2451053 C61.680091,12.2451053 60.0311671,10.9172237 59.9824679,7.82988012 C59.9345296,4.43749282 61.9060856,3.28510548 63.6349067,3.28510548 C64.3303919,3.28510548 65.2518717,3.41314852 65.9952952,4.18140674 L65.9952952,0.630095441 L68.5162389,0.630095441 L68.5162389,12.0206534 L68.5162389,12.0206534 Z M64.2337544,5.10934217 C63.0375807,5.10934217 62.5041725,6.13368647 62.5041725,7.7651054 C62.5041725,9.15700854 62.842784,10.4216218 64.2337544,10.4216218 C65.542545,10.4216218 65.9952952,9.22103006 65.9952952,7.58885793 C65.9952952,6.06966495 65.542545,5.10934217 64.2337544,5.10934217 L64.2337544,5.10934217 Z" id="Fill-21"></path>
                        <path d="M78.1982453,10.2453744 C78.1982453,10.8373851 78.2142247,11.4926642 78.4242399,12.0206534 L76.0965712,12.0206534 C75.9999337,11.7329332 75.9512345,11.4293959 75.9344942,11.1409224 L75.9025354,11.1409224 C75.4832658,11.813525 74.2216526,12.2451053 73.3169131,12.2451053 C71.6679892,12.2451053 70.4398566,11.3488041 70.4398566,9.71663193 C70.4398566,7.66944972 72.10476,6.94939594 74.8524592,6.56602002 L75.7731781,6.43797698 L75.7731781,5.73298708 C75.7731781,5.09352509 75.2565102,4.82086874 74.5777654,4.82086874 C73.7696633,4.82086874 73.3815917,5.10934217 73.2522345,5.95743899 L70.8271673,5.95743899 C70.9085863,3.5095574 73.2035353,3.28510548 74.3677501,3.28510548 C76.7113984,3.28510548 78.181505,3.82966499 78.1982453,5.74955736 L78.1982453,10.2453744 L78.1982453,10.2453744 Z M75.7731781,7.87733136 L74.076316,8.35786935 C73.4462703,8.53261043 72.8641629,8.77287943 72.8641629,9.46129905 C72.8641629,10.1331484 73.4295299,10.4216218 74.0443571,10.4216218 C75.0305156,10.4216218 75.7731781,9.76558957 75.7731781,8.46934211 L75.7731781,7.87733136 L75.7731781,7.87733136 Z" id="Fill-22"></path>
                        <path d="M80.6605978,3.5095574 L83.1830633,3.5095574 L83.1830633,4.26124534 C83.8290884,3.5095574 84.8966658,3.28510548 85.6712872,3.28510548 C86.6574457,3.28510548 87.3848897,3.66923459 87.9502568,4.42092254 C88.7750992,3.59014919 89.7125585,3.28510548 90.7146964,3.28510548 C91.5555182,3.28510548 93.3649973,3.57357891 93.3649973,5.52585864 L93.3649973,12.0206534 L90.8440536,12.0206534 L90.8440536,7.04580481 C90.8440536,5.84521304 90.5046812,5.30140673 89.5512425,5.30140673 C88.7104206,5.30140673 88.2736498,5.92505164 88.2736498,6.78971874 L88.2736498,12.0206534 L85.7527061,12.0206534 L85.7527061,6.69406306 C85.7527061,5.86103012 85.4939917,5.30140673 84.5238127,5.30140673 C83.5049345,5.30140673 83.1830633,5.95743899 83.1830633,6.72569722 L83.1830633,12.0206534 L80.6605978,12.0206534 L80.6605978,3.5095574" id="Fill-23"></path>
                        <path d="M4.44713649,0.630095441 L7.4215913,0.630095441 L11.7695153,12.0206534 L8.72353354,12.0206534 L8.14218704,10.2288041 L3.80719878,10.2288041 L3.2266132,12.0206534 L0.196610875,12.0206534 L4.44713649,0.630095441 L4.44713649,0.630095441 Z M7.44746275,8.11684716 L5.99029186,3.28887145 L5.94615823,3.28887145 L4.48670457,8.11684716 L7.44746275,8.11684716 L7.44746275,8.11684716 Z" id="Fill-24"></path>
                    </g>
                </g>
            </g>
        </g>
    </g>
</svg>