<?xml version="1.0" encoding="utf-8"?>
<!-- Generator: Adobe Illustrator 16.0.3, SVG Export Plug-In . SVG Version: 6.00 Build 0)  -->
<!DOCTYPE svg PUBLIC "-//W3C//DTD SVG 1.1//EN" "http://www.w3.org/Graphics/SVG/1.1/DTD/svg11.dtd">
<svg version="1.1" id="Layer_1" xmlns="http://www.w3.org/2000/svg" xmlns:xlink="http://www.w3.org/1999/xlink" x="0px" y="0px"
	 width="300px" height="300px" viewBox="0 0 300 300" enable-background="new 0 0 300 300" xml:space="preserve">
<g>
	<rect width="300" height="300"/>
	<path fill="#E62686" d="M56.25,150.011h44.083l21.287,97.508h0.336l21.957-97.508h43.576V281.25h-28.375V179.319h-0.337
		L134.962,281.25h-26.519L83.949,179.319h-0.336V281.25H56.25V150.011z"/>
	<path fill="#FFFFFF" d="M281.407,263.012c0,0,0,12.394,0,18.237h-23.359c-0.984-2.959-1.642-6.076-1.808-9.036l0,0
		c-4.273,6.904-16.732,11.335-24.692,11.335c-16.758,0-29.241-9.201-29.241-25.959c0-21.024,16.923-28.419,44.851-32.361
		l9.217-1.314v-7.232c0-6.572-5.108-9.362-12.012-9.362c-8.218,0-12.155,2.956-13.469,11.663H206.25
		c0.818-25.135,24.148-27.433,35.979-27.433c23.818,0,39.019,5.582,39.178,25.298V263.012z M256.374,238.697l-17.254,4.928
		c-6.407,1.811-12.318,4.273-12.318,11.338c0,6.899,5.746,9.859,11.987,9.859c10.023,0,17.585-6.737,17.585-20.049V238.697z"/>
</g>
</svg>
