<?xml version="1.0" encoding="iso-8859-1"?>
<!-- Generator: Adobe Illustrator 19.0.0, SVG Export Plug-In . SVG Version: 6.00 Build 0)  -->
<svg xmlns="http://www.w3.org/2000/svg" xmlns:xlink="http://www.w3.org/1999/xlink" version="1.1" id="Capa_1" x="0px" y="0px" viewBox="0 0 511.997 511.997" style="enable-background:new 0 0 511.997 511.997;" xml:space="preserve" width="512px" height="512px">
<g>
	<g>
		<path d="M442.646,61.465L279.118,0.778c-2.8-1.037-5.882-1.037-8.676,0.001h-0.001L106.916,61.465    c-10.84,4.023-10.833,19.368,0,23.388l12.709,4.716V213.75c-12.052,3.682-20.843,14.904-20.843,28.144    c0,16.224,13.199,29.423,29.423,29.423s29.423-13.199,29.423-29.423c0-14.018-9.858-25.771-23.003-28.709V95.136l35.885,13.317    v98.763c0,11.168,9.086,20.255,20.255,20.255c7.464,0,160.585,0,167.83,0c11.28,0,20.458-9.177,20.458-20.458v-27.915    c0-4.142-3.357-7.5-7.5-7.5s-7.5,3.358-7.5,7.5v27.915c0,3.01-2.448,5.458-5.458,5.458h-76.313v-68.105l81.771-30.346v30.079    c0,4.142,3.357,7.5,7.5,7.5s7.5-3.358,7.5-7.5v-35.646l63.593-23.6C453.483,80.831,453.482,65.486,442.646,61.465z     M142.627,241.894c0,7.953-6.47,14.423-14.423,14.423s-14.423-6.47-14.423-14.423s6.47-14.423,14.423-14.423    S142.627,233.941,142.627,241.894z M267.28,212.471h-76.517c-2.896,0-5.254-2.357-5.254-5.255V114.02l81.771,30.346V212.471z     M274.781,131.14c-50.604-18.78-133.78-49.637-156.264-57.981l156.264-57.991l156.263,57.991    C308.117,118.779,428.294,74.17,274.781,131.14z" fill="#e62686"/>
	</g>
</g>
<g>
	<g>
		<path d="M499.708,222.56c-0.057-0.056-0.115-0.112-0.175-0.166c-15.52-14.297-36.275-12.789-54.17,3.938l-79.634,66.04    c-4.461-9.775-14.029-19.537-32.133-19.537c-104.22,0-77.663-4.628-152.597,26.361l-0.689-1.828    c-3.282-8.708-12.985-13.098-21.691-9.813c-56.451,21.271-96.35,36.302-145.564,54.854c-9.352,3.519-14.072,13.937-10.549,23.295    l50.705,134.554c2.727,7.238,9.627,11.708,16.941,11.708c4.597-0.001-5.373,3.261,151.922-56.018    c4.209-1.585,7.549-4.714,9.404-8.81c2.421-5.345,1.63-9.659-0.227-14.587c25.483-10.821,26.799-12.359,51.087-12.602    c4.142-0.042,7.466-3.433,7.425-7.575c-0.042-4.116-3.392-7.425-7.498-7.425c-0.026,0-0.052,0-0.077,0    c-27.23,0.273-30.731,2.704-56.23,13.553L186.292,313.24l50.856-21.032c14.677-5.567,23.437-4.373,96.448-4.373    c8.096,0,13.724,2.782,17.205,8.505c2.46,4.044,3.066,8.304,3.186,9.393c-0.179,2.53-1.777,16.454-15.311,18.752    c-20.438,3.47-64.516,9.781-64.958,9.844c-4.101,0.586-6.949,4.386-6.363,8.486c0.589,4.118,4.408,6.95,8.486,6.362    c0.445-0.063,44.716-6.402,65.347-9.905c18.911-3.211,25.931-19.325,27.475-29.849c90.614-75.135,86.251-71.494,86.943-72.135    c8.573-8.015,21.364-15.194,33.675-3.945c14.011,13.884,0.969,30.43-1.857,33.678c-0.267,0.286-108.851,116.941-109.105,117.227    c-15.264,17.5-35.912,20.4-44.27,20.825c-6.1,0-11.655-0.015-16.756-0.036c-4.126-0.014-7.514,3.327-7.53,7.47    c-0.017,4.142,3.327,7.513,7.47,7.53c5.17,0.021,10.807,0.036,17.001,0.036c0.119,0,0.238-0.003,0.357-0.009    c10.148-0.484,35.796-3.976,54.951-25.864c0.133-0.143,109.039-117.153,109.168-117.298    C508.361,265.837,519.431,241.937,499.708,222.56z M71.221,496.767c-1.591,0.599-3.374-0.208-3.973-1.798L16.543,360.417    c-0.597-1.585,0.194-3.366,1.799-3.97c31.961-12.048,76.063-28.667,98.375-37.073c2.809,7.455,50.876,135.007,52.878,140.321    L71.221,496.767z M217.86,439.55c0.357,0.949-0.117,2.001-1.073,2.361l-33.153,12.494c-2.503-6.642-50.157-133.097-52.879-140.321    l33.156-12.494c0.001,0,0.002,0,0.002,0c0.949-0.36,2.005,0.117,2.362,1.067L217.86,439.55z" fill="#e62686"/>
	</g>
</g>
<g>
</g>
<g>
</g>
<g>
</g>
<g>
</g>
<g>
</g>
<g>
</g>
<g>
</g>
<g>
</g>
<g>
</g>
<g>
</g>
<g>
</g>
<g>
</g>
<g>
</g>
<g>
</g>
<g>
</g>
</svg>
