<?xml version="1.0" encoding="utf-8"?>
<!-- Generator: Adobe Illustrator 20.1.0, SVG Export Plug-In . SVG Version: 6.00 Build 0)  -->
<svg version="1.1" id="Capa_1" xmlns="http://www.w3.org/2000/svg" xmlns:xlink="http://www.w3.org/1999/xlink" x="0px" y="0px"
	 viewBox="0 0 512 512" style="enable-background:new 0 0 512 512;" xml:space="preserve">
<g>
	<g>
		<path d="M442.6,61.5L279.1,0.8c-2.8-1-5.9-1-8.7,0h0L106.9,61.5c-10.8,4-10.8,19.4,0,23.4l12.7,4.7v124.2
			c-12.1,3.7-20.8,14.9-20.8,28.1c0,16.2,13.2,29.4,29.4,29.4s29.4-13.2,29.4-29.4c0-14-9.9-25.8-23-28.7v-118l35.9,13.3v98.8
			c0,11.2,9.1,20.3,20.3,20.3c7.5,0,160.6,0,167.8,0c11.3,0,20.5-9.2,20.5-20.5v-27.9c0-4.1-3.4-7.5-7.5-7.5s-7.5,3.4-7.5,7.5V207
			c0,3-2.4,5.5-5.5,5.5h-76.3v-68.1l81.8-30.3v30.1c0,4.1,3.4,7.5,7.5,7.5s7.5-3.4,7.5-7.5v-35.6l63.6-23.6
			C453.5,80.8,453.5,65.5,442.6,61.5z M142.6,241.9c0,8-6.5,14.4-14.4,14.4s-14.4-6.5-14.4-14.4s6.5-14.4,14.4-14.4
			S142.6,233.9,142.6,241.9z M267.3,212.5h-76.5c-2.9,0-5.3-2.4-5.3-5.3V114l81.8,30.3V212.5z M274.8,131.1
			c-50.6-18.8-133.8-49.6-156.3-58l156.3-58l156.3,58C308.1,118.8,428.3,74.2,274.8,131.1z"/>
	</g>
</g>
</svg>
