<?xml version="1.0" encoding="iso-8859-1"?>
<!-- Generator: Adobe Illustrator 19.0.0, SVG Export Plug-In . SVG Version: 6.00 Build 0)  -->
<svg xmlns="http://www.w3.org/2000/svg" xmlns:xlink="http://www.w3.org/1999/xlink" version="1.1" id="Capa_1" x="0px" y="0px" viewBox="0 0 480.001 480.001" style="enable-background:new 0 0 480.001 480.001;" xml:space="preserve" width="512px" height="512px">
<g>
	<g>
		<g>
			<circle cx="256" cy="208.002" r="16" fill="#e62686"/>
			<circle cx="48" cy="416.002" r="16" fill="#e62686"/>
			<circle cx="96" cy="416.002" r="16" fill="#e62686"/>
			<circle cx="144" cy="416.002" r="16" fill="#e62686"/>
			<path d="M160,368.802v-40.8c-0.001-4.418-3.583-7.999-8.002-7.998c-2.121,0-4.154,0.843-5.654,2.342l-45.656,45.656H40     c-22.08,0.026-39.974,17.92-40,40v16c0.026,22.08,17.92,39.974,40,40h112c22.08-0.026,39.974-17.92,40-40v-16     C191.979,389,178.613,372.627,160,368.802z M176,424.002c0,13.255-10.745,24-24,24H40c-13.255,0-24-10.745-24-24v-16     c0-13.255,10.745-24,24-24h64c2.122,0,4.156-0.844,5.656-2.344L144,347.314v28.688c0,4.418,3.582,8,8,8c13.255,0,24,10.745,24,24     V424.002z" fill="#e62686"/>
			<path d="M352,48.002H205.6c-1.814-0.005-3.573-0.623-4.992-1.752L165,17.754c-3.449-2.761-8.484-2.204-11.245,1.245     c-1.137,1.42-1.756,3.184-1.755,5.003v56c0.037,27.316,15.53,52.259,40,64.4v68.936l-36.8,49.064     c-5.302,7.069-3.869,17.098,3.2,22.4c2.77,2.077,6.138,3.2,9.6,3.2h24v24c0.04,35.33,28.67,63.96,64,64h48v80     c0,4.418,3.582,8,8,8h104c4.418,0,8-3.582,8-8V299.314l13.072-13.072c17.003-16.758,29.448-37.578,36.16-60.488     c4.54-16.193,6.817-32.935,6.768-49.752C479.916,105.344,422.658,48.086,352,48.002z M408,448.002h-88v-80c0-4.418-3.582-8-8-8     h-56c-26.499-0.026-47.974-21.501-48-48v-32c0-4.418-3.582-8-8-8h-32l38.4-51.2c1.039-1.385,1.6-3.069,1.6-4.8v-64h104v112     h18.088c18.037,25.075,47.024,39.956,77.912,40V448.002z M328,248.002v-40h16c8.837,0,16,7.163,16,16v8c0,8.837-7.163,16-16,16     H328z M457.84,221.386c-5.967,20.285-17.009,38.714-32.08,53.544l-13.072,13.072H408c-21.751-0.053-42.544-8.951-57.6-24.648     c14.888-3.058,25.581-16.153,25.6-31.352v-8c0-17.673-14.327-32-32-32h-16v-48c0-4.418-3.582-8-8-8h-96     c-30.913-0.035-55.965-25.087-56-56V40.65l22.616,18.088c4.253,3.404,9.537,5.261,14.984,5.264H352     c61.827,0.071,111.93,50.173,112,112C464.047,191.342,461.974,206.614,457.84,221.386z" fill="#e62686"/>
		</g>
	</g>
</g>
<g>
</g>
<g>
</g>
<g>
</g>
<g>
</g>
<g>
</g>
<g>
</g>
<g>
</g>
<g>
</g>
<g>
</g>
<g>
</g>
<g>
</g>
<g>
</g>
<g>
</g>
<g>
</g>
<g>
</g>
</svg>
